<svg xmlns="http://www.w3.org/2000/svg" viewBox="1113.536 2172.219 59.778 48.049"><defs><style>.a{fill:#fff;}</style></defs><g transform="translate(1113.536 2172.219)"><path class="a" d="M59.292.486A1.65,1.65,0,0,0,58.158,0H1.62A1.591,1.591,0,0,0,.486.486,1.591,1.591,0,0,0,0,1.62V38.653a1.6,1.6,0,0,0,1.62,1.62H26.309v1.62h-4.86v6.156h16.88V41.893h-4.86v-1.62H58.158a1.6,1.6,0,0,0,1.62-1.62V1.62A1.591,1.591,0,0,0,59.292.486ZM56.538,37.033H3.24V3.24h53.3Z"/><path class="a" d="M68.384,27.2a2.544,2.544,0,0,0-2.56,2.56,2.762,2.762,0,0,0,.259,1.134L56.04,39.8a1.866,1.866,0,0,0-2.689.648L44.6,37.179a1.919,1.919,0,0,0-3.726.454l-8.359,6.026a2.511,2.511,0,0,0-1.458-.454,2.56,2.56,0,1,0,2.56,2.56,2.506,2.506,0,0,0-.259-1.1l7.938-5.7a1.872,1.872,0,0,0,1.49.745,1.891,1.891,0,0,0,1.75-1.134l8.586,3.208A1.887,1.887,0,0,0,55,43.3a1.915,1.915,0,0,0,1.912-1.912,3.192,3.192,0,0,0-.065-.551l10.109-8.975a2.511,2.511,0,0,0,1.458.454,2.544,2.544,0,0,0,2.56-2.56A2.636,2.636,0,0,0,68.384,27.2ZM31.934,46.64A1.252,1.252,0,0,1,31.06,47a1.2,1.2,0,0,1-.875-.356,1.252,1.252,0,0,1-.356-.875,1.2,1.2,0,0,1,.356-.875,1.252,1.252,0,0,1,.875-.356,1.2,1.2,0,0,1,.875.356,1.252,1.252,0,0,1,.356.875A1.127,1.127,0,0,1,31.934,46.64ZM69.259,30.667a1.252,1.252,0,0,1-.875.356,1.2,1.2,0,0,1-.875-.356,1.252,1.252,0,0,1-.356-.875,1.2,1.2,0,0,1,.356-.875,1.252,1.252,0,0,1,.875-.356,1.2,1.2,0,0,1,.875.356,1.252,1.252,0,0,1,.356.875A1.127,1.127,0,0,1,69.259,30.667Z" transform="translate(-19.266 -18.387)"/></g></svg>