<svg class="core-values__diagram" id="Layer_1" data-name="Layer 1" xmlns="http://www.w3.org/2000/svg" viewBox="0 0 421.9 414.65"><defs><style>.cls-6,.cls-8{fill:none;stroke-miterlimit:10;stroke:#8a8b8c}.cls-6{stroke-width:.5px}.cls-8{stroke-width:6.32px;stroke-dasharray:1.01 6.33;opacity:.48}.cls-11,.cls-8{isolation:isolate}.cls-12{fill:#5b6670}</style></defs><path d="M95.7 395A213.84 213.84 0 0 1 7.5 221.7C7.5 103.4 103.4 7.5 221.7 7.5A214.26 214.26 0 0 1 395 95.7" stroke-width="15" stroke="#5d6770" fill="none" stroke-miterlimit="10"/><path d="M250.2 31.1c92.9 13.8 164.2 93.9 164.2 190.6a192.75 192.75 0 0 1-140.7 185.6" stroke="#b22029" stroke-width="15" fill="none" stroke-miterlimit="10"/><path d="M323.1 329.9a148.3 148.3 0 1 1 3.4-213.1" stroke="#fbaa1c" stroke-width="15" fill="none" stroke-miterlimit="10"/><path d="M335.6 275.6a126 126 0 1 1-113.9-180 111.52 111.52 0 0 1 12.9.7" stroke="#8a8b8c" stroke-width="15" fill="none" stroke-miterlimit="10"/><path d="M318.8 183.4a103.14 103.14 0 0 1 7.2 38.3 104.27 104.27 0 1 1-46-86.5" stroke="#ea1d2d" stroke-width="15" fill="none" stroke-miterlimit="10"/><path class="cls-6" d="M228.7 53.9c99.4 0 180 80.6 180 180" transform="translate(-7 -12.2)"/><path d="M35.2 173.3A193.33 193.33 0 0 1 172 35.5" stroke-width=".5" stroke="#fbaa1c" fill="none" stroke-miterlimit="10"/><path class="cls-6" d="M248.4 425.6a183 183 0 0 1-19.7 1 192.76 192.76 0 0 1-80-17.3" transform="translate(-7 -12.2)"/><circle class="cls-8" cx="221.7" cy="221.7" r="169.4"/><circle class="cls-8" cx="221.7" cy="221.7" r="169.4"/><path class="cls-6" d="M252.3 172.8a65.31 65.31 0 0 1 22 14.1" transform="translate(-7 -12.2)"/><path d="M241.4 167.9a57.46 57.46 0 0 1 21 13.5" stroke-width=".44" stroke="#8a8b8c" fill="none" stroke-miterlimit="10"/><circle cx="221.7" cy="221.7" r="84.7" stroke-width="3.16" stroke-dasharray=".5 3.17" stroke="#fbaa1c" fill="none" stroke-miterlimit="10"/><path class="cls-6" d="M269.4 284.9a65.33 65.33 0 1 1 12.3-89.2" transform="translate(-7 -12.2)"/><g class="cls-11"><path class="cls-12" d="M220.88 208.79v2.85h2.58V213h-2.58v5.35c0 1.23.35 1.92 1.35 1.92a4 4 0 0 0 1-.12l.08 1.35a4.42 4.42 0 0 1-1.59.25 2.51 2.51 0 0 1-1.95-.76 3.67 3.67 0 0 1-.69-2.58V213h-1.54v-1.37h1.54v-2.37zM225.48 207h1.8v6.19h.05a3.22 3.22 0 0 1 1.29-1.27 3.65 3.65 0 0 1 1.84-.51c1.33 0 3.46.81 3.46 4.23v5.9h-1.8v-5.69c0-1.6-.6-3-2.3-3a2.59 2.59 0 0 0-2.41 1.8 2.23 2.23 0 0 0-.13.86v6h-1.8zM237.85 216.92a3.17 3.17 0 0 0 3.4 3.44 6.43 6.43 0 0 0 2.74-.51l.31 1.29a8 8 0 0 1-3.3.62c-3.05 0-4.87-2-4.87-5s1.76-5.34 4.65-5.34c3.23 0 4.09 2.84 4.09 4.66a6.87 6.87 0 0 1-.06.84zm5.28-1.29c0-1.14-.47-2.92-2.5-2.92-1.82 0-2.62 1.67-2.76 2.92z" transform="translate(-7 -12.2)"/></g><g class="cls-11"><path class="cls-12" d="M195.84 230.54c0 .72-.08 1.52-.08 2.72V239c0 2.27-.45 3.66-1.41 4.52a5.2 5.2 0 0 1-3.6 1.19 6.33 6.33 0 0 1-3.3-.82l.45-1.37a5.6 5.6 0 0 0 2.91.78c1.84 0 3.19-1 3.19-3.46v-1.11a3.54 3.54 0 0 1-3.15 1.66c-2.46 0-4.22-2.09-4.22-4.83 0-3.36 2.19-5.26 4.46-5.26a3.31 3.31 0 0 1 3.1 1.72l.08-1.5zm-1.84 3.91a2.67 2.67 0 0 0-.1-.82 2.6 2.6 0 0 0-2.52-1.9c-1.72 0-3 1.45-3 3.75 0 1.94 1 3.56 2.93 3.56a2.64 2.64 0 0 0 2.5-1.84 3.25 3.25 0 0 0 .14-1zM199.4 230.54l2.18 5.86c.22.65.47 1.43.63 2 .19-.59.39-1.35.64-2.06l2-5.82h1.91l-2.71 7.07c-1.29 3.39-2.17 5.14-3.4 6.2a4.85 4.85 0 0 1-2.21 1.17l-.45-1.52a4.71 4.71 0 0 0 1.58-.88 5.47 5.47 0 0 0 1.51-2 1.19 1.19 0 0 0 .15-.44 1.45 1.45 0 0 0-.13-.47l-3.66-9.13zM208.39 233.63c0-1.16 0-2.17-.08-3.09h1.58l.06 2h.05a3 3 0 0 1 2.74-2.17 2.06 2.06 0 0 1 .52.06v1.7a2.83 2.83 0 0 0-.62-.06 2.51 2.51 0 0 0-2.41 2.31 4.24 4.24 0 0 0-.09.84v5.28h-1.78zM223.85 235.42c0 3.66-2.54 5.26-4.93 5.26-2.69 0-4.75-2-4.75-5.1 0-3.32 2.17-5.26 4.91-5.26s4.77 2.06 4.77 5.1zm-7.86.1c0 2.17 1.25 3.81 3 3.81s3-1.62 3-3.85c0-1.68-.84-3.81-3-3.81s-2.99 1.96-2.99 3.85zM234.68 225.91v12c0 .88 0 1.89.08 2.56h-1.62l-.08-1.72a3.66 3.66 0 0 1-3.38 2c-2.39 0-4.24-2-4.24-5 0-3.3 2-5.32 4.45-5.32a3.31 3.31 0 0 1 3 1.51v-5.92zm-1.8 8.67a3.22 3.22 0 0 0-.08-.76 2.65 2.65 0 0 0-2.6-2.09c-1.87 0-3 1.64-3 3.83 0 2 1 3.66 2.92 3.66a2.72 2.72 0 0 0 2.65-2.15 3.17 3.17 0 0 0 .08-.78zM243.16 240.45l-.16-1.25a3.69 3.69 0 0 1-3 1.48 2.83 2.83 0 0 1-3-2.85c0-2.39 2.13-3.71 6-3.68v-.21a2 2 0 0 0-2.25-2.29 4.9 4.9 0 0 0-2.58.73l-.41-1.18a6 6 0 0 1 3.25-.88c3 0 3.77 2.06 3.77 4.05v3.71a14.17 14.17 0 0 0 .16 2.37zm-.27-5.06c-2 0-4.2.31-4.2 2.24a1.6 1.6 0 0 0 1.7 1.72 2.48 2.48 0 0 0 2.4-1.66 2 2 0 0 0 .1-.58zM249.62 227.69v2.85h2.58v1.37h-2.58v5.35c0 1.23.35 1.92 1.36 1.92a4.1 4.1 0 0 0 1-.12l.08 1.35a4.48 4.48 0 0 1-1.6.25 2.49 2.49 0 0 1-1.94-.76 3.67 3.67 0 0 1-.7-2.58v-5.41h-1.53v-1.37h1.53v-2.37zM259.72 240.45l-.15-1.25h-.06a3.69 3.69 0 0 1-3 1.48 2.83 2.83 0 0 1-3-2.85c0-2.39 2.13-3.71 6-3.68v-.21a2 2 0 0 0-2.25-2.29 4.92 4.92 0 0 0-2.58.73l-.41-1.18a6.06 6.06 0 0 1 3.25-.88c3 0 3.77 2.06 3.77 4.05v3.71a13.12 13.12 0 0 0 .17 2.37zm-.27-5.06c-2 0-4.2.31-4.2 2.24a1.6 1.6 0 0 0 1.7 1.72 2.48 2.48 0 0 0 2.4-1.66 2 2 0 0 0 .1-.58z" transform="translate(-7 -12.2)"/></g><g class="cls-11"><path class="cls-12" d="M215.42 249.54l1.31 5c.29 1.1.56 2.13.74 3.15h.06c.23-1 .55-2.07.88-3.13l1.62-5.06h1.52l1.53 5c.37 1.18.66 2.23.88 3.23h.04a30.49 30.49 0 0 1 .76-3.21l1.41-5H228l-3.2 9.91h-1.64l-1.51-4.73a31 31 0 0 1-.88-3.25 32.33 32.33 0 0 1-.9 3.27l-1.6 4.71h-1.64l-3-9.91zM235.18 259.45l-.18-1.25a3.71 3.71 0 0 1-3 1.48 2.83 2.83 0 0 1-3-2.85c0-2.39 2.13-3.71 6-3.68v-.21a2 2 0 0 0-2.25-2.29 5 5 0 0 0-2.58.73l-.41-1.18a6.1 6.1 0 0 1 3.26-.88c3 0 3.76 2.06 3.76 4.05v3.71a14.1 14.1 0 0 0 .17 2.37zm-.27-5.06c-2 0-4.19.31-4.19 2.24a1.59 1.59 0 0 0 1.7 1.72 2.46 2.46 0 0 0 2.39-1.66 2 2 0 0 0 .1-.58zM240.05 249.54l2.17 5.86c.23.65.47 1.43.64 2 .18-.59.39-1.35.63-2.06l2-5.82h1.9l-2.7 7.07c-1.29 3.39-2.17 5.14-3.4 6.2a4.85 4.85 0 0 1-2.21 1.17l-.45-1.52a4.67 4.67 0 0 0 1.57-.88 5.37 5.37 0 0 0 1.52-2 1.34 1.34 0 0 0 .14-.44 1.65 1.65 0 0 0-.12-.47l-3.67-9.13z" transform="translate(-7 -12.2)"/></g></svg>
