<svg xmlns="http://www.w3.org/2000/svg" viewBox="1113.486 2065.745 59.828 59.21"><defs><style>.a{fill:#fff;}</style></defs><g transform="translate(1113.486 2065.745)"><rect class="a" width="1.93" height="1.93" transform="translate(57.899 57.28)"/><path class="a" d="M47.284,49.561H39.127l-2.669-16.4H38.6v-5.79H35.508l-1.568-9.65H35.7v-5.79H34a5.32,5.32,0,0,0,.739-2.895A8.914,8.914,0,0,0,29.281.407L28.18,0,28,1.146a7.757,7.757,0,0,1-1.523,3.679,6.506,6.506,0,0,0-1.387,4.207,5.712,5.712,0,0,0,.663,2.895H24.124v5.79h1.764l-1.568,9.65H21.229v5.79h2.141L20.7,49.561H12.545v7.72H0v1.93H55.969V57.28H47.284ZM19.45,57.28H14.475v-5.79h5.91ZM28.075,5.91a9.767,9.767,0,0,0,1.553-3.166,7.2,7.2,0,0,1,3.181,6.272c0,2.035-.859,2.895-2.895,2.895-1.523,0-2.895-.226-2.895-2.895A4.629,4.629,0,0,1,28.075,5.91Zm-2.02,7.946h7.72v1.93h-7.72Zm6.031,8.655-5.639,3.769L27.577,19.3Zm-3.408-4.795h3.3l.437,2.669Zm4.357,6.468.513,3.166H28.3Zm-9.876,7.041V29.3h13.51v1.93Zm12.605,9.65L25.708,33.141H34.5Zm-10.75-5.82,10.675,8.217L22.164,52.561ZM21.4,57.28l.347-2.141.03.045L36.443,45.1l1.99,12.183Zm23.959,0H40.378l-.95-5.79h5.91v5.79Zm0,0"/><path class="a" d="M0,0H1.93V1.93H0Z" transform="translate(41.494 53.421)"/><rect class="a" width="1.93" height="1.93" transform="translate(16.405 53.421)"/></g></svg>