<svg xmlns="http://www.w3.org/2000/svg" viewBox="1113.486 2364.632 60.695 59.866"><defs><style>.a{fill:#fff;}</style></defs><g transform="translate(1113.526 2364.661)"><g transform="translate(-0.041 -0.03)"><path class="a" d="M4.288,26.786A24.968,24.968,0,0,1,20.371,7.695l-.392.687a1.944,1.944,0,0,0,.719,2.681,2.1,2.1,0,0,0,.981.262,1.962,1.962,0,0,0,1.7-.981l2.713-4.675a2,2,0,0,0,.2-1.5,1.934,1.934,0,0,0-.915-1.177L20.666.242a1.944,1.944,0,0,0-2.681.719A1.944,1.944,0,0,0,18.7,3.641l.49.294A28.774,28.774,0,0,0,1.705,40.941a1.968,1.968,0,0,0,1.831,1.275,1.707,1.707,0,0,0,.687-.131A1.978,1.978,0,0,0,5.4,39.568,24.293,24.293,0,0,1,4.288,26.786Zm0,0" transform="translate(0.041 0.03)"/><path class="a" d="M63.494,142.38a2,2,0,0,0-2.779.229,24.885,24.885,0,0,1-34.881,3.2h.621a1.961,1.961,0,1,0,0-3.923h-5.23a2,2,0,0,0-1.438.458,1.917,1.917,0,0,0-.687,1.308h0v5.59a1.961,1.961,0,1,0,3.923,0v-.686a28.763,28.763,0,0,0,13.6,6.375,28.333,28.333,0,0,0,4.969.425,28.923,28.923,0,0,0,22.1-10.3,1.8,1.8,0,0,0-.2-2.681Zm0,0" transform="translate(-12.843 -95.492)"/><path class="a" d="M125.232,42.4a1.944,1.944,0,0,0-2.681-.719l-.654.36c.033-.131.065-.262.1-.425A28.791,28.791,0,0,0,98.622,8.234a1.975,1.975,0,1,0-.687,3.89,24.873,24.873,0,0,1,20.17,28.8l-.294-.49a1.963,1.963,0,1,0-3.4,1.961l2.713,4.675a1.934,1.934,0,0,0,1.177.915,2.541,2.541,0,0,0,.523.065,2.1,2.1,0,0,0,.981-.262l4.675-2.713a1.927,1.927,0,0,0,.752-2.681Zm0,0" transform="translate(-64.807 -5.511)"/></g><path class="a" d="M70.327,59.932H67.45a1.063,1.063,0,0,1-1.013-.687,1.1,1.1,0,0,1,.229-1.21l2.027-2.027a1.579,1.579,0,0,0,0-2.223L66.11,51.2a1.62,1.62,0,0,0-2.223,0L61.86,53.23a1.049,1.049,0,0,1-1.21.229,1.063,1.063,0,0,1-.687-1.013V49.569A1.569,1.569,0,0,0,58.4,48H54.7a1.569,1.569,0,0,0-1.569,1.569v2.877a1.063,1.063,0,0,1-.686,1.013,1.1,1.1,0,0,1-1.21-.229L49.209,51.2a1.62,1.62,0,0,0-2.223,0L44.4,53.786a1.578,1.578,0,0,0,0,2.223l2.027,2.027a1.049,1.049,0,0,1,.229,1.21,1.063,1.063,0,0,1-1.013.687H42.769A1.569,1.569,0,0,0,41.2,61.5v3.661a1.569,1.569,0,0,0,1.569,1.569h2.877a1.063,1.063,0,0,1,1.013.687,1.1,1.1,0,0,1-.229,1.21L44.4,70.655a1.578,1.578,0,0,0,0,2.223l2.583,2.583a1.62,1.62,0,0,0,2.223,0l2.027-2.027a1.049,1.049,0,0,1,1.21-.229,1.063,1.063,0,0,1,.686,1.013v2.877A1.57,1.57,0,0,0,54.7,78.664h3.661a1.569,1.569,0,0,0,1.569-1.569V74.218a1.063,1.063,0,0,1,.687-1.013,1.1,1.1,0,0,1,1.21.229l2.027,2.027a1.62,1.62,0,0,0,2.223,0l2.583-2.583a1.578,1.578,0,0,0,0-2.223l-2.027-2.027a1.049,1.049,0,0,1-.229-1.21,1.063,1.063,0,0,1,1.013-.687h2.877a1.569,1.569,0,0,0,1.569-1.569V61.534A1.53,1.53,0,0,0,70.327,59.932Zm-13.8,8.728a5.3,5.3,0,1,1,5.3-5.3A5.316,5.316,0,0,1,56.532,68.66Z" transform="translate(-27.759 -32.329)"/></g></svg>