<svg xmlns="http://www.w3.org/2000/svg" viewBox="73 61 163.6 41.7"><defs><style>.a{fill:#5d6771;fill-rule:evenodd;}.b{fill:#e2202d;}</style></defs><g transform="translate(73 61)"><path class="a" d="M72.4,7.9a5.7,5.7,0,0,0-1.3.1c-4.9.4-8.2,2.8-9.8,6.2a12.742,12.742,0,0,0-1.1,5.2,9.736,9.736,0,0,0,1.1,4.8c1.6,3.1,4.9,4.4,8.8,4.4h1c8.2-.5,10.8-7.2,10.8-12C81.9,10.6,78.1,7.9,72.4,7.9ZM71.1,23a1.483,1.483,0,0,1-.7.1c-2.1,0-2.7-1.6-2.7-3.2,0-1.9.9-5.9,3.3-6.5a1.7,1.7,0,0,1,.7-.1c2,0,2.6,1.3,2.6,3.7C74.4,18.6,73.5,22.4,71.1,23Z"/><path class="a" d="M61.3,13.3,61,14.9a9.291,9.291,0,0,0-2.9-.5c-3.2,0-4.8,1.4-5.6,5.5l-1.7,8.2H43.3l1.9-9.4h0L47.3,8.4h7.3l-.7,3.1H54a7.591,7.591,0,0,1,5.7-3.6,8.083,8.083,0,0,1,1.6.1h0a4.253,4.253,0,0,1,1.1.2Z"/><path class="a" d="M47.1,8.4l-1.9,3.7-9,17.2c-1.7,3.3-2.9,5.2-9.6,5.2a21.751,21.751,0,0,1-2.5-.1c-.3,0-.7-.1-1-.1l1-5.5.1-.4c.6,0,1.3.1,1.9.1,1.6,0,2.7-.1,2.7-2L25.3,8.4h7.6l1.3,11.8h.1L39.4,8.4h7.7Z"/><path class="a" d="M17.9,8.4,17.4,11h-.1a5.191,5.191,0,0,0-4.4-2.9,6.753,6.753,0,0,0-1.4-.2C5.3,7.9,2,13.7,2,19.3c0,4.6,3,7.6,7.7,7.6a7.216,7.216,0,0,0,3.2-.8,4.428,4.428,0,0,0,1.5-1.2h.1L14,27a5.943,5.943,0,0,1-1.1,2.7,2.708,2.708,0,0,1-2.1.8,2.5,2.5,0,0,1-1.7-.4,2.2,2.2,0,0,1-.6-1.7H1V29c.2,5.7,6.9,6,9.1,6a24.583,24.583,0,0,0,2.8-.2c7-.9,7.9-5.2,8.9-10.1l2.3-11.1,1.1-5.2H17.9ZM12.9,22a1.949,1.949,0,0,1-.8.1c-1.7,0-2.6-1.4-2.6-3.1,0-2.2.9-5.2,3.4-5.5.2,0,.4-.1.6-.1,2.7,0,2.8,1.9,2.8,3.1S15.7,21.4,12.9,22Z"/><path class="a" d="M163.6,13.3c0-4.8-6-5.2-9.6-5.2a13.4,13.4,0,0,0-2,.1c-3.9.3-7.1,1.9-8.1,6.4h7a2.84,2.84,0,0,1,1-1.5,3.939,3.939,0,0,1,2-.5c1.1,0,2.3.3,2.3,1.7,0,2-2.3,2.1-4.3,2.2a4.869,4.869,0,0,0-1.2.1c-3.7.3-6.7,1-8.3,2.9a6.28,6.28,0,0,0-1.3,4.1,5.011,5.011,0,0,0,1.3,3.5,7.221,7.221,0,0,0,5.1,1.8,9.353,9.353,0,0,0,4.3-1,4.744,4.744,0,0,0,1.7-1.4h.1a5.822,5.822,0,0,0,.3,1.9h7.4a4.31,4.31,0,0,1-.3-1.7C161.2,25.2,163.6,16.3,163.6,13.3ZM152.1,24.2c-.2,0-.5.1-.8.1-1.2,0-2.4-.3-2.4-1.7a2.329,2.329,0,0,1,2.4-2.2,2.2,2.2,0,0,0,.8-.1,8.873,8.873,0,0,0,3.2-.8C154.9,22,154,23.8,152.1,24.2Z"/><path class="a" d="M138.9,13.1l-1.3,6.3a13.8,13.8,0,0,0-.3,2c0,.6.3,1.2,1.5,1.2s1.9-.1,2.5-.1l-1.1,5.4c-1.3.2-2.7.4-4.1.5a9.949,9.949,0,0,1-4.8-.8,4.271,4.271,0,0,1-2-3.7,10.952,10.952,0,0,1,.4-2.7l1.7-8.1H128l1.1-4.6h3.3l1.3-6h7.5l-1.3,6H144l-1.1,4.6Z"/><path class="a" d="M127.8,13.3c0-4.8-6-5.2-9.6-5.2a11.483,11.483,0,0,0-1.9.1c-3.9.3-7.1,1.9-8.1,6.4h7.1a2.376,2.376,0,0,1,1-1.5,3.83,3.83,0,0,1,1.9-.5c1.1,0,2.4.3,2.4,1.7,0,2-2.3,2.1-4.3,2.2a4.869,4.869,0,0,0-1.2.1c-3.1.2-5.7.8-7.4,2.1a5.958,5.958,0,0,0-2.1,4.9,4.736,4.736,0,0,0,2.1,4.2,8.316,8.316,0,0,0,4.3,1.1,9.353,9.353,0,0,0,4.3-1,4.744,4.744,0,0,0,1.7-1.4h.1a5.822,5.822,0,0,0,.3,1.9h7.4a4.31,4.31,0,0,1-.3-1.7C125.4,25.2,127.8,16.3,127.8,13.3ZM116.3,24.2c-.3,0-.5.1-.8.1-1.2,0-2.4-.3-2.4-1.7a2.329,2.329,0,0,1,2.4-2.2,2.2,2.2,0,0,0,.8-.1,8.873,8.873,0,0,0,3.2-.8C119.1,22,118.3,23.8,116.3,24.2Z"/><path class="a" d="M102.3,1.1l-2.1,9.8A5.772,5.772,0,0,0,95.6,8H94.5c-5.9,0-9.8,5.2-9.8,12.7,0,2.4.9,8,7.2,8a5.516,5.516,0,0,0,3.6-1.1,6.562,6.562,0,0,0,1.6-1.7h.1l-.5,2.2h7.4l3.5-16.9L109.7,1h-7.4ZM95.6,23.2H95c-2,0-2.8-1.4-2.8-3.2,0-2.6.8-6,3.3-6.5.2,0,.4-.1.7-.1,1.9,0,2.7,1.4,2.7,3.6C99,19.3,98.1,22.7,95.6,23.2Z"/><path class="b" d="M80.2,37.1,87.4.2h0l-1-.2h0L79.1,37.1H0v4.6H163.6V37.1H80.2Z"/></g></svg>