<svg xmlns="http://www.w3.org/2000/svg" viewBox="1113.486 2276.232 60.666 48.061"><defs><style>.a{fill:#fff;}</style></defs><g transform="translate(1113.511 2276.257)"><g transform="translate(-0.025 -0.025)"><path class="a" d="M60.254,15.87,44.749.364a1.35,1.35,0,0,0-1.9,0L38.78,4.451A1.332,1.332,0,0,0,38.4,5.4a1.4,1.4,0,0,0,.385.948l.533.533L37.433,8.761A4.447,4.447,0,0,1,34.8,9.99L24.133,10a3.33,3.33,0,0,0-1.97.637L21.32,9.8l.518-.518a1.332,1.332,0,0,0,.385-.948,1.4,1.4,0,0,0-.385-.948L17.765,3.311a1.35,1.35,0,0,0-1.9,0L.364,18.772a1.35,1.35,0,0,0,0,1.9l4.073,4.073a1.359,1.359,0,0,0,1.9,0l.444-.444,1.97,1.97a6.729,6.729,0,0,1,1.5,2.251l.074.193A9.171,9.171,0,0,0,12.4,31.864L27.436,46.9a3.91,3.91,0,0,0,6.4-1.3,3.926,3.926,0,0,0,4.354-.815,4.146,4.146,0,0,0,.829-1.2,3.93,3.93,0,0,0,5.317-5.332,3.915,3.915,0,0,0,1.17-.8l.015-.015a3.933,3.933,0,0,0,0-5.568l-.1-.1,2.532-2.532a11.213,11.213,0,0,0,2.34-3.421l.074-.193a6.584,6.584,0,0,1,1.5-2.251l1.97-1.97.444.429a1.332,1.332,0,0,0,.948.385,1.4,1.4,0,0,0,.948-.385l4.073-4.073a1.319,1.319,0,0,0,.015-1.881ZM5.4,21.912,3.207,19.72,16.817,6.11,19.009,8.3Zm38.239,13.64h0a1.234,1.234,0,0,1-1.777,0l-7.82-7.76a1.34,1.34,0,0,0-1.9,1.9s9.686,9.686,9.745,9.715a1.282,1.282,0,0,1-.148,1.629,1.242,1.242,0,0,1-1.762,0L29.628,30.739a1.34,1.34,0,0,0-1.9,1.9l8.738,8.738a1.258,1.258,0,0,1-.193,1.54,1.251,1.251,0,0,1-1.777,0l-9.626-9.567a1.34,1.34,0,1,0-1.9,1.9l8.249,8.249a1.258,1.258,0,0,1-.193,1.54,1.242,1.242,0,0,1-1.762,0L14.285,29.983a6.729,6.729,0,0,1-1.5-2.251l-.074-.193a9.171,9.171,0,0,0-2.088-3.154l-1.97-1.97L19.409,11.664,20.742,13a3.631,3.631,0,0,0-.03.4v.03a5.132,5.132,0,0,0,5.08,5.006H28.31L43.638,33.76a1.252,1.252,0,0,1,0,1.792Zm6.353-14.084a9.213,9.213,0,0,0-2.073,3.14l-.074.193a8.634,8.634,0,0,1-1.762,2.532l-2.532,2.532-7.094-7.094a12.11,12.11,0,0,0,3.08-.459.816.816,0,0,0,.489-1.14l-.489-.963a.808.808,0,0,0-.933-.415,11.047,11.047,0,0,1-5.095.03l-3.673-3.673-.015.015a1.343,1.343,0,0,0-.948-.385h0l-3.066-.015a2.458,2.458,0,0,1-2.4-2.4.75.75,0,0,1,.74-.726L34.9,12.626a.721.721,0,0,0,.178-.015,7.121,7.121,0,0,0,4.25-2l1.881-1.881L51.961,19.483Zm5.228-2.458L41.609,5.4,43.8,3.207l13.61,13.61Zm0,0" transform="translate(0.025 0.025)"/></g></g></svg>