<svg xmlns="http://www.w3.org/2000/svg" viewBox="1118.63 1962.982 50.475 59.037"><defs><style>.a{fill:#fff;}</style></defs><g transform="translate(1118.63 1962.982)"><path class="a" d="M65.378,106.3a18.478,18.478,0,1,0,18.478,18.478A18.5,18.5,0,0,0,65.378,106.3Zm1.2,34.52v-1.542a1.2,1.2,0,0,0-2.393,0v1.542a16.131,16.131,0,0,1-14.846-14.846h1.542a1.2,1.2,0,0,0,0-2.393H49.336a16.119,16.119,0,0,1,14.846-14.846v1.542a1.2,1.2,0,0,0,2.393,0v-1.542A16.131,16.131,0,0,1,81.42,123.582H79.878a1.2,1.2,0,0,0,0,2.393H81.42A16.131,16.131,0,0,1,66.574,140.82Zm0,0" transform="translate(-40.14 -90.979)"/><path class="a" d="M26.434,8.59V7.034h1.917a1.193,1.193,0,0,0,1.2-1.2V1.2a1.193,1.193,0,0,0-1.2-1.2H22.11a1.193,1.193,0,0,0-1.2,1.2V5.837a1.193,1.193,0,0,0,1.2,1.2h1.917V8.59a25.245,25.245,0,1,0,2.407,0ZM23.306,4.641V2.393h3.848V4.641Zm1.931,51.873A22.715,22.715,0,1,1,47.953,33.8,22.741,22.741,0,0,1,25.238,56.514Zm0,0" transform="translate(0)"/><path class="a" d="M129.525,171.333a1.216,1.216,0,0,0-1.34-.245l-10.954,4.973c-.014,0-.014.014-.029.014s-.043.014-.058.029-.029.014-.043.029-.029.014-.043.029-.043.029-.058.043-.029.014-.029.029a.826.826,0,0,0-.159.159c-.014.014-.014.029-.029.029a.2.2,0,0,0-.043.058c-.014.014-.014.029-.029.043s-.014.029-.029.043-.014.043-.029.058-.014.014-.014.029l-4.973,10.954a1.192,1.192,0,0,0,1.1,1.686,1.149,1.149,0,0,0,.49-.1l10.954-4.973c.014,0,.014-.014.029-.014s.043-.014.058-.029.029-.014.043-.029.029-.014.043-.029.043-.029.058-.043.029-.014.029-.029a.826.826,0,0,0,.159-.159c.014-.014.014-.029.029-.043a.2.2,0,0,0,.043-.058c.014-.014.014-.029.029-.043s.014-.029.029-.043.014-.043.029-.058.014-.014.014-.029l4.973-10.954a1.168,1.168,0,0,0-.245-1.326ZM115.17,185.7l2.94-6.472,3.531,3.531Zm8.158-4.641L119.8,177.53l6.472-2.94Zm0,0" transform="translate(-95.481 -146.34)"/></g></svg>